<svg width="40" height="40" viewBox="0 0 40 40" fill="none" xmlns="http://www.w3.org/2000/svg">
<path d="M20.0001 9.99999V15L26.6667 8.33332L20.0001 1.66666V6.66666C12.6334 6.66666 6.66675 12.6333 6.66675 20C6.66675 22.6167 7.43341 25.05 8.73341 27.1L11.1667 24.6667C10.4167 23.2833 10.0001 21.6833 10.0001 20C10.0001 14.4833 14.4834 9.99999 20.0001 9.99999ZM31.2667 12.9L28.8334 15.3333C29.5667 16.7333 30.0001 18.3167 30.0001 20C30.0001 25.5167 25.5167 30 20.0001 30V25L13.3334 31.6667L20.0001 38.3333V33.3333C27.3667 33.3333 33.3334 27.3667 33.3334 20C33.3334 17.3833 32.5667 14.95 31.2667 12.9Z" fill="url(#paint0_linear)"/>
<defs>
<linearGradient id="paint0_linear" x1="20.0001" y1="1.42221" x2="20.0001" y2="38.5778" gradientUnits="userSpaceOnUse">
<stop stop-color="#FF7177"/>
<stop offset="0.0001" stop-color="#FF7177"/>
<stop offset="1" stop-color="#764393"/>
</linearGradient>
</defs>
</svg>
