<svg width="40" height="40" viewBox="0 0 40 40" fill="none" xmlns="http://www.w3.org/2000/svg">
<path d="M31.6667 4.99999H24.7C24 3.06666 22.1667 1.66666 20 1.66666C17.8333 1.66666 16 3.06666 15.3 4.99999H8.33333C6.5 4.99999 5 6.49999 5 8.33332V31.6667C5 33.5 6.5 35 8.33333 35H31.6667C33.5 35 35 33.5 35 31.6667V8.33332C35 6.49999 33.5 4.99999 31.6667 4.99999ZM20 4.99999C20.9167 4.99999 21.6667 5.74999 21.6667 6.66666C21.6667 7.58332 20.9167 8.33332 20 8.33332C19.0833 8.33332 18.3333 7.58332 18.3333 6.66666C18.3333 5.74999 19.0833 4.99999 20 4.99999ZM16.6667 28.3333L10 21.6667L12.35 19.3167L16.6667 23.6167L27.65 12.6333L30 15L16.6667 28.3333Z" fill="url(#paint0_linear)"/>
<defs>
<linearGradient id="paint0_linear" x1="20" y1="1.44443" x2="20" y2="35.2222" gradientUnits="userSpaceOnUse">
<stop stop-color="#FF7177"/>
<stop offset="0.0001" stop-color="#FF7177"/>
<stop offset="1" stop-color="#764393"/>
</linearGradient>
</defs>
</svg>
