<svg width="40" height="40" viewBox="0 0 40 40" fill="none" xmlns="http://www.w3.org/2000/svg">
<path d="M31.6667 5.00002H24.7C24 3.06669 22.1667 1.66669 20 1.66669C17.8333 1.66669 16 3.06669 15.3 5.00002H8.33333C6.5 5.00002 5 6.50002 5 8.33335V31.6667C5 33.5 6.5 35 8.33333 35H31.6667C33.5 35 35 33.5 35 31.6667V8.33335C35 6.50002 33.5 5.00002 31.6667 5.00002ZM20 5.00002C20.9167 5.00002 21.6667 5.75002 21.6667 6.66669C21.6667 7.58335 20.9167 8.33335 20 8.33335C19.0833 8.33335 18.3333 7.58335 18.3333 6.66669C18.3333 5.75002 19.0833 5.00002 20 5.00002ZM20 30L11.6667 21.6667H16.6667V15H23.3333V21.6667H28.3333L20 30Z" fill="url(#paint0_linear)"/>
<defs>
<linearGradient id="paint0_linear" x1="20" y1="1.44446" x2="20" y2="35.2222" gradientUnits="userSpaceOnUse">
<stop stop-color="#FF7177"/>
<stop offset="0.0001" stop-color="#FF7177"/>
<stop offset="1" stop-color="#764393"/>
</linearGradient>
</defs>
</svg>
