<svg width="40" height="40" viewBox="0 0 40 40" fill="none" xmlns="http://www.w3.org/2000/svg">
<path d="M33.3333 25.8333C31.25 25.8333 29.25 25.5 27.3833 24.8833C26.8 24.7 26.15 24.8333 25.6833 25.2833L22.0167 28.95C17.3 26.55 13.4333 22.7 11.0333 17.9667L14.7 14.2833C15.1667 13.85 15.3 13.2 15.1167 12.6167C14.5 10.75 14.1667 8.75 14.1667 6.66667C14.1667 5.75 13.4167 5 12.5 5H6.66667C5.75 5 5 5.75 5 6.66667C5 22.3167 17.6833 35 33.3333 35C34.25 35 35 34.25 35 33.3333V27.5C35 26.5833 34.25 25.8333 33.3333 25.8333ZM31.6667 20H35C35 11.7167 28.2833 5 20 5V8.33333C26.45 8.33333 31.6667 13.55 31.6667 20ZM25 20H28.3333C28.3333 15.4 24.6 11.6667 20 11.6667V15C22.7667 15 25 17.2333 25 20Z" fill="url(#paint0_linear)"/>
<defs>
<linearGradient id="paint0_linear" x1="20" y1="4.8" x2="20" y2="35.2" gradientUnits="userSpaceOnUse">
<stop stop-color="#FF7177"/>
<stop offset="0.0001" stop-color="#FF7177"/>
<stop offset="1" stop-color="#764393"/>
</linearGradient>
</defs>
</svg>
